<mxfile host="app.diagrams.net" modified="2023-08-04T22:35:17.320Z" agent="Mozilla/5.0 (Windows NT 10.0; Win64; x64) AppleWebKit/537.36 (KHTML, like Gecko) Chrome/115.0.0.0 Safari/537.36" version="21.6.6" etag="ojO01il4LGNBj9yj31TQ" type="github">
  <diagram name="PÃ¡gina-1" id="jOx-HteJ0gcS-3e-MmAq">
    <mxGraphModel>
      <root>
        <mxCell id="0" />
        <mxCell id="1" parent="0" />
      </root>
    </mxGraphModel>
  </diagram>
</mxfile>
